<mxfile host="app.diagrams.net" agent="Mozilla/5.0 (Macintosh; Intel Mac OS X 10_15_7) AppleWebKit/537.36 (KHTML, like Gecko) Chrome/140.0.0.0 Safari/537.36" version="28.2.1">
  <diagram name="페이지-1" id="-2zzXhJ0D0PkR9dWkDgN">
    <mxGraphModel dx="3527" dy="1551" grid="1" gridSize="10" guides="1" tooltips="1" connect="1" arrows="1" fold="1" page="1" pageScale="1" pageWidth="827" pageHeight="1169" math="0" shadow="0">
      <root>
        <mxCell id="0" />
        <mxCell id="1" parent="0" />
        <mxCell id="Kjhy6SPaoh9fnP034nJU-9" style="edgeStyle=orthogonalEdgeStyle;rounded=0;orthogonalLoop=1;jettySize=auto;html=1;" edge="1" parent="1">
          <mxGeometry relative="1" as="geometry">
            <mxPoint x="439.00173310225296" y="300" as="sourcePoint" />
            <mxPoint x="278" y="340" as="targetPoint" />
            <Array as="points">
              <mxPoint x="439" y="320" />
              <mxPoint x="278" y="320" />
            </Array>
          </mxGeometry>
        </mxCell>
        <mxCell id="Kjhy6SPaoh9fnP034nJU-10" style="edgeStyle=orthogonalEdgeStyle;rounded=0;orthogonalLoop=1;jettySize=auto;html=1;entryX=0.5;entryY=0;entryDx=0;entryDy=0;" edge="1" parent="1" source="Kjhy6SPaoh9fnP034nJU-1" target="Kjhy6SPaoh9fnP034nJU-3">
          <mxGeometry relative="1" as="geometry">
            <Array as="points">
              <mxPoint x="439" y="310" />
              <mxPoint x="439" y="310" />
            </Array>
          </mxGeometry>
        </mxCell>
        <mxCell id="Kjhy6SPaoh9fnP034nJU-11" style="edgeStyle=orthogonalEdgeStyle;rounded=0;orthogonalLoop=1;jettySize=auto;html=1;entryX=0.5;entryY=0;entryDx=0;entryDy=0;" edge="1" parent="1">
          <mxGeometry relative="1" as="geometry">
            <mxPoint x="598" y="340" as="targetPoint" />
            <mxPoint x="433.00173310225296" y="300" as="sourcePoint" />
            <Array as="points">
              <mxPoint x="439" y="300" />
              <mxPoint x="439" y="320" />
              <mxPoint x="598" y="320" />
            </Array>
          </mxGeometry>
        </mxCell>
        <mxCell id="Kjhy6SPaoh9fnP034nJU-1" value="app" style="rounded=0;whiteSpace=wrap;html=1;" vertex="1" parent="1">
          <mxGeometry x="388" y="260" width="100" height="40" as="geometry" />
        </mxCell>
        <mxCell id="Kjhy6SPaoh9fnP034nJU-2" value="Header" style="rounded=0;whiteSpace=wrap;html=1;" vertex="1" parent="1">
          <mxGeometry x="224" y="340" width="110" height="50" as="geometry" />
        </mxCell>
        <mxCell id="Kjhy6SPaoh9fnP034nJU-12" style="edgeStyle=orthogonalEdgeStyle;rounded=0;orthogonalLoop=1;jettySize=auto;html=1;" edge="1" parent="1" source="Kjhy6SPaoh9fnP034nJU-3" target="Kjhy6SPaoh9fnP034nJU-5">
          <mxGeometry relative="1" as="geometry">
            <Array as="points">
              <mxPoint x="439" y="420" />
              <mxPoint x="-390" y="420" />
            </Array>
          </mxGeometry>
        </mxCell>
        <mxCell id="Kjhy6SPaoh9fnP034nJU-14" style="edgeStyle=orthogonalEdgeStyle;rounded=0;orthogonalLoop=1;jettySize=auto;html=1;exitX=0.5;exitY=1;exitDx=0;exitDy=0;" edge="1" parent="1" source="Kjhy6SPaoh9fnP034nJU-3" target="Kjhy6SPaoh9fnP034nJU-7">
          <mxGeometry relative="1" as="geometry">
            <Array as="points">
              <mxPoint x="439" y="440" />
              <mxPoint x="439" y="440" />
            </Array>
          </mxGeometry>
        </mxCell>
        <mxCell id="Kjhy6SPaoh9fnP034nJU-33" style="edgeStyle=orthogonalEdgeStyle;rounded=0;orthogonalLoop=1;jettySize=auto;html=1;exitX=0.5;exitY=1;exitDx=0;exitDy=0;" edge="1" parent="1" source="Kjhy6SPaoh9fnP034nJU-3" target="Kjhy6SPaoh9fnP034nJU-24">
          <mxGeometry relative="1" as="geometry">
            <mxPoint x="800" y="390" as="sourcePoint" />
            <Array as="points">
              <mxPoint x="439" y="420" />
              <mxPoint x="1260" y="420" />
            </Array>
          </mxGeometry>
        </mxCell>
        <mxCell id="Kjhy6SPaoh9fnP034nJU-3" value="Contents" style="rounded=0;whiteSpace=wrap;html=1;" vertex="1" parent="1">
          <mxGeometry x="384" y="340" width="110" height="50" as="geometry" />
        </mxCell>
        <mxCell id="Kjhy6SPaoh9fnP034nJU-4" value="Footer" style="rounded=0;whiteSpace=wrap;html=1;" vertex="1" parent="1">
          <mxGeometry x="550" y="340" width="110" height="50" as="geometry" />
        </mxCell>
        <mxCell id="Kjhy6SPaoh9fnP034nJU-19" style="edgeStyle=orthogonalEdgeStyle;rounded=0;orthogonalLoop=1;jettySize=auto;html=1;entryX=0.5;entryY=0;entryDx=0;entryDy=0;" edge="1" parent="1" source="Kjhy6SPaoh9fnP034nJU-5" target="Kjhy6SPaoh9fnP034nJU-15">
          <mxGeometry relative="1" as="geometry">
            <Array as="points">
              <mxPoint x="-395" y="570" />
              <mxPoint x="-605" y="570" />
            </Array>
          </mxGeometry>
        </mxCell>
        <mxCell id="Kjhy6SPaoh9fnP034nJU-20" style="edgeStyle=orthogonalEdgeStyle;rounded=0;orthogonalLoop=1;jettySize=auto;html=1;entryX=0.5;entryY=0;entryDx=0;entryDy=0;" edge="1" parent="1" source="Kjhy6SPaoh9fnP034nJU-5" target="Kjhy6SPaoh9fnP034nJU-16">
          <mxGeometry relative="1" as="geometry">
            <Array as="points">
              <mxPoint x="-395" y="570" />
              <mxPoint x="-465" y="570" />
            </Array>
          </mxGeometry>
        </mxCell>
        <mxCell id="Kjhy6SPaoh9fnP034nJU-21" style="edgeStyle=orthogonalEdgeStyle;rounded=0;orthogonalLoop=1;jettySize=auto;html=1;entryX=0.5;entryY=0;entryDx=0;entryDy=0;" edge="1" parent="1" source="Kjhy6SPaoh9fnP034nJU-5" target="Kjhy6SPaoh9fnP034nJU-17">
          <mxGeometry relative="1" as="geometry">
            <Array as="points">
              <mxPoint x="-395" y="570" />
              <mxPoint x="-310" y="570" />
            </Array>
          </mxGeometry>
        </mxCell>
        <mxCell id="Kjhy6SPaoh9fnP034nJU-22" style="edgeStyle=orthogonalEdgeStyle;rounded=0;orthogonalLoop=1;jettySize=auto;html=1;entryX=0.5;entryY=0;entryDx=0;entryDy=0;" edge="1" parent="1" source="Kjhy6SPaoh9fnP034nJU-5" target="Kjhy6SPaoh9fnP034nJU-18">
          <mxGeometry relative="1" as="geometry">
            <Array as="points">
              <mxPoint x="-395" y="570" />
              <mxPoint x="-157" y="570" />
            </Array>
          </mxGeometry>
        </mxCell>
        <mxCell id="Kjhy6SPaoh9fnP034nJU-5" value="Manager" style="rounded=0;whiteSpace=wrap;html=1;" vertex="1" parent="1">
          <mxGeometry x="-450" y="490" width="110" height="50" as="geometry" />
        </mxCell>
        <mxCell id="Kjhy6SPaoh9fnP034nJU-39" style="edgeStyle=orthogonalEdgeStyle;rounded=0;orthogonalLoop=1;jettySize=auto;html=1;exitX=0.5;exitY=1;exitDx=0;exitDy=0;" edge="1" parent="1" source="Kjhy6SPaoh9fnP034nJU-7" target="Kjhy6SPaoh9fnP034nJU-23">
          <mxGeometry relative="1" as="geometry" />
        </mxCell>
        <mxCell id="Kjhy6SPaoh9fnP034nJU-40" style="edgeStyle=orthogonalEdgeStyle;rounded=0;orthogonalLoop=1;jettySize=auto;html=1;" edge="1" parent="1" source="Kjhy6SPaoh9fnP034nJU-7" target="Kjhy6SPaoh9fnP034nJU-29">
          <mxGeometry relative="1" as="geometry">
            <Array as="points">
              <mxPoint x="439" y="580" />
              <mxPoint x="250" y="580" />
            </Array>
          </mxGeometry>
        </mxCell>
        <mxCell id="Kjhy6SPaoh9fnP034nJU-41" style="edgeStyle=orthogonalEdgeStyle;rounded=0;orthogonalLoop=1;jettySize=auto;html=1;exitX=0.5;exitY=1;exitDx=0;exitDy=0;" edge="1" parent="1" source="Kjhy6SPaoh9fnP034nJU-7" target="Kjhy6SPaoh9fnP034nJU-28">
          <mxGeometry relative="1" as="geometry" />
        </mxCell>
        <mxCell id="Kjhy6SPaoh9fnP034nJU-42" style="edgeStyle=orthogonalEdgeStyle;rounded=0;orthogonalLoop=1;jettySize=auto;html=1;" edge="1" parent="1" source="Kjhy6SPaoh9fnP034nJU-7" target="Kjhy6SPaoh9fnP034nJU-30">
          <mxGeometry relative="1" as="geometry" />
        </mxCell>
        <mxCell id="Kjhy6SPaoh9fnP034nJU-43" style="edgeStyle=orthogonalEdgeStyle;rounded=0;orthogonalLoop=1;jettySize=auto;html=1;" edge="1" parent="1" source="Kjhy6SPaoh9fnP034nJU-7" target="Kjhy6SPaoh9fnP034nJU-31">
          <mxGeometry relative="1" as="geometry">
            <Array as="points">
              <mxPoint x="439" y="580" />
              <mxPoint x="700" y="580" />
            </Array>
          </mxGeometry>
        </mxCell>
        <mxCell id="Kjhy6SPaoh9fnP034nJU-44" style="edgeStyle=orthogonalEdgeStyle;rounded=0;orthogonalLoop=1;jettySize=auto;html=1;exitX=0.5;exitY=1;exitDx=0;exitDy=0;" edge="1" parent="1" source="Kjhy6SPaoh9fnP034nJU-7" target="Kjhy6SPaoh9fnP034nJU-35">
          <mxGeometry relative="1" as="geometry" />
        </mxCell>
        <mxCell id="Kjhy6SPaoh9fnP034nJU-7" value="User" style="rounded=0;whiteSpace=wrap;html=1;" vertex="1" parent="1">
          <mxGeometry x="384" y="490" width="110" height="50" as="geometry" />
        </mxCell>
        <mxCell id="Kjhy6SPaoh9fnP034nJU-15" value="User Management" style="rounded=0;whiteSpace=wrap;html=1;" vertex="1" parent="1">
          <mxGeometry x="-660" y="620" width="110" height="50" as="geometry" />
        </mxCell>
        <mxCell id="Kjhy6SPaoh9fnP034nJU-16" value="Team Managment" style="rounded=0;whiteSpace=wrap;html=1;" vertex="1" parent="1">
          <mxGeometry x="-520" y="620" width="110" height="50" as="geometry" />
        </mxCell>
        <mxCell id="Kjhy6SPaoh9fnP034nJU-17" value="Baseline Information&lt;br&gt;Managment" style="rounded=0;whiteSpace=wrap;html=1;" vertex="1" parent="1">
          <mxGeometry x="-380" y="620" width="140" height="50" as="geometry" />
        </mxCell>
        <mxCell id="Kjhy6SPaoh9fnP034nJU-18" value="Project Managment&lt;br&gt;(For Admin)" style="rounded=0;whiteSpace=wrap;html=1;" vertex="1" parent="1">
          <mxGeometry x="-211.5" y="620" width="110" height="50" as="geometry" />
        </mxCell>
        <mxCell id="Kjhy6SPaoh9fnP034nJU-23" value="Dashboard" style="rounded=0;whiteSpace=wrap;html=1;" vertex="1" parent="1">
          <mxGeometry x="50" y="620" width="110" height="50" as="geometry" />
        </mxCell>
        <mxCell id="Kjhy6SPaoh9fnP034nJU-45" style="edgeStyle=orthogonalEdgeStyle;rounded=0;orthogonalLoop=1;jettySize=auto;html=1;" edge="1" parent="1" source="Kjhy6SPaoh9fnP034nJU-24" target="Kjhy6SPaoh9fnP034nJU-36">
          <mxGeometry relative="1" as="geometry">
            <Array as="points">
              <mxPoint x="1267" y="580" />
              <mxPoint x="1115" y="580" />
            </Array>
          </mxGeometry>
        </mxCell>
        <mxCell id="Kjhy6SPaoh9fnP034nJU-47" style="edgeStyle=orthogonalEdgeStyle;rounded=0;orthogonalLoop=1;jettySize=auto;html=1;" edge="1" parent="1" source="Kjhy6SPaoh9fnP034nJU-24" target="Kjhy6SPaoh9fnP034nJU-38">
          <mxGeometry relative="1" as="geometry">
            <Array as="points">
              <mxPoint x="1267" y="580" />
              <mxPoint x="1433" y="580" />
            </Array>
          </mxGeometry>
        </mxCell>
        <mxCell id="Kjhy6SPaoh9fnP034nJU-24" value="Login" style="rounded=0;whiteSpace=wrap;html=1;" vertex="1" parent="1">
          <mxGeometry x="1212" y="490" width="110" height="50" as="geometry" />
        </mxCell>
        <mxCell id="Kjhy6SPaoh9fnP034nJU-28" value="Calendar" style="rounded=0;whiteSpace=wrap;html=1;" vertex="1" parent="1">
          <mxGeometry x="340" y="620" width="110" height="50" as="geometry" />
        </mxCell>
        <mxCell id="Kjhy6SPaoh9fnP034nJU-29" value="Project Management&lt;br&gt;(For User)" style="rounded=0;whiteSpace=wrap;html=1;" vertex="1" parent="1">
          <mxGeometry x="180" y="620" width="140" height="50" as="geometry" />
        </mxCell>
        <mxCell id="Kjhy6SPaoh9fnP034nJU-30" value="Job Management" style="rounded=0;whiteSpace=wrap;html=1;" vertex="1" parent="1">
          <mxGeometry x="470" y="620" width="140" height="50" as="geometry" />
        </mxCell>
        <mxCell id="Kjhy6SPaoh9fnP034nJU-31" value="Notice Management" style="rounded=0;whiteSpace=wrap;html=1;" vertex="1" parent="1">
          <mxGeometry x="630" y="620" width="140" height="50" as="geometry" />
        </mxCell>
        <mxCell id="Kjhy6SPaoh9fnP034nJU-35" value="MyPage" style="rounded=0;whiteSpace=wrap;html=1;" vertex="1" parent="1">
          <mxGeometry x="800" y="620" width="110" height="50" as="geometry" />
        </mxCell>
        <mxCell id="Kjhy6SPaoh9fnP034nJU-36" value="Login" style="rounded=0;whiteSpace=wrap;html=1;" vertex="1" parent="1">
          <mxGeometry x="1060" y="620" width="110" height="50" as="geometry" />
        </mxCell>
        <mxCell id="Kjhy6SPaoh9fnP034nJU-37" value="FindId" style="rounded=0;whiteSpace=wrap;html=1;" vertex="1" parent="1">
          <mxGeometry x="1212" y="620" width="110" height="50" as="geometry" />
        </mxCell>
        <mxCell id="Kjhy6SPaoh9fnP034nJU-38" value="FindPw" style="rounded=0;whiteSpace=wrap;html=1;" vertex="1" parent="1">
          <mxGeometry x="1378" y="620" width="110" height="50" as="geometry" />
        </mxCell>
        <mxCell id="Kjhy6SPaoh9fnP034nJU-46" style="edgeStyle=orthogonalEdgeStyle;rounded=0;orthogonalLoop=1;jettySize=auto;html=1;entryX=0.5;entryY=0;entryDx=0;entryDy=0;" edge="1" parent="1" source="Kjhy6SPaoh9fnP034nJU-24" target="Kjhy6SPaoh9fnP034nJU-37">
          <mxGeometry relative="1" as="geometry" />
        </mxCell>
      </root>
    </mxGraphModel>
  </diagram>
</mxfile>
